<svg xmlns="http://www.w3.org/2000/svg" xmlns:xlink="http://www.w3.org/1999/xlink" version="1.1" x="0px" y="0px" viewBox="0 0 96 120" enable-background="new 0 0 96 96" xml:space="preserve"><path d="M13.668,34.8c-0.792-0.768-0.816-2.036-0.048-2.828c0.764-0.796,2.032-0.816,2.828-0.052  c9.708,9.384,32.132,36.588,38.147,58.588c7.248-10.6,8.108-23.188,2.364-35.392C47.392,34.792,23.084,20.176,6.388,19.2  c-1.14-0.072-2.02,0.92-2.108,2.004C2.116,47.008,6.496,66.492,17.296,78.412c7.944,8.771,19.34,14.264,33.832,14.564  C45.992,71.584,23.34,44.144,13.668,34.8z"/><path d="M91.748,4.856c-0.088-1.084-1.036-1.876-2.107-1.828C72.316,4.04,53.992,15.9,43.82,32.032  c4.532,3.876,8.668,8.328,12.073,13.264C64.408,32.348,74.359,20.908,79.7,15.744c0.792-0.768,2.06-0.752,2.827,0.052  c0.765,0.788,0.744,2.06-0.051,2.828C77.061,23.86,66.764,35.712,58.232,49c0.84,1.436,1.631,2.904,2.344,4.412  c2.947,6.256,4.224,12.704,4.027,18.977C84.62,64.936,94.716,40.26,91.748,4.856z"/><text x="0" y="111" fill="#000000" font-size="5px" font-weight="bold" font-family="'Helvetica Neue', Helvetica, Arial-Unicode, Arial, Sans-serif">Created by iconsmind.com</text><text x="0" y="116" fill="#000000" font-size="5px" font-weight="bold" font-family="'Helvetica Neue', Helvetica, Arial-Unicode, Arial, Sans-serif">from the Noun Project</text></svg>